Coordinates
version=1
nRows=19
nColumns=24
inDegrees=yes

Units are S.I. units (second, meters, Newtons, ...)
Angles are in degrees.

endheader
time	pelvis_tilt	pelvis_list	pelvis_rotation	pelvis_tx	pelvis_ty	pelvis_tz	hip_flexion_r	hip_adduction_r	hip_rotation_r	knee_angle_r	ankle_angle_r	subtalar_angle_r	mtp_angle_r	hip_flexion_l	hip_adduction_l	hip_rotation_l	knee_angle_l	ankle_angle_l	subtalar_angle_l	mtp_angle_l	lumbar_extension	lumbar_bending	lumbar_rotation
      2.24000000	      4.34112402	      0.86764079	      2.56237734	     -0.16685067	      1.02686674	      0.00174770	     19.04067011	     -3.97483039	     -2.41190745	    -36.81604030	      6.95659608	     -4.64580360	     18.04292087	     -9.95812898	      3.19433437	     -9.08381489	     -1.66835098	      9.70142165	     10.59267592	      2.55991234	    -16.83024178	      2.72422065	     -2.74560285
      2.24500000	      4.41668179	      0.87052187	      2.59015792	     -0.16171790	      1.02640823	      0.00205068	     18.96498215	     -3.96405164	     -2.52988837	    -35.39360921	      6.89053046	     -4.74328572	     18.12276025	    -10.40118926	      3.15916903	     -9.12221978	     -1.59887809	      9.99342581	     10.74823312	      2.54589803	    -16.86701251	      2.70717158	     -2.80341738
      2.25000000	      4.47808688	      0.89056869	      2.60855525	     -0.15659290	      1.02589672	      0.00235468	     18.89212866	     -3.97026490	     -2.62920673	    -33.95321514	      6.81355553	     -4.80332877	     18.17747056	    -10.82824823	      3.14519350	     -9.14037413	     -1.53174879	     10.27511948	     10.87944970	      2.54617349	    -16.88997959	      2.67112267	     -2.84920970
      2.25500000	      4.56077405	      0.91641766	      2.61298297	     -0.15144074	      1.02536811	      0.00270496	     18.77730413	     -3.97426048	     -2.71113798	    -32.48672048	      6.74341204	     -4.83555734	     18.23837179	    -11.28207642	      3.13847900	     -9.20443198	     -1.46197056	     10.56146603	     11.01393854	      2.54781787	    -16.93779331	      2.62280903	     -2.90733692
      2.26000000	      4.58743063	      0.95572749	      2.62072157	     -0.14631931	      1.02473043	      0.00304954	     18.71267097	     -3.99543691	     -2.77721957	    -31.00786653	      6.65731696	     -4.82549491	     18.27149383	    -11.66414696	      3.14593088	     -9.20644934	     -1.41123575	     10.84326555	     11.11310092	      2.56390572	    -16.92440996	      2.55891837	     -2.93369592
      2.26500000	      4.63258096	      1.00548235	      2.61897349	     -0.14117220	      1.02407521	      0.00342111	     18.60778560	     -4.02283849	     -2.82445724	    -29.50363505	      6.56992947	     -4.78080613	     18.30158662	    -12.07188114	      3.16585172	     -9.23846599	     -1.35265167	     11.12225352	     11.21198376	      2.58598463	    -16.93292023	      2.48128028	     -2.98067050
      2.27000000	      4.65517882	      1.06343571	      2.61220366	     -0.13602353	      1.02334672	      0.00380547	     18.51265361	     -4.05679543	     -2.84852399	    -27.98382395	      6.47502523	     -4.68943066	     18.32642297	    -12.44925165	      3.19616602	     -9.26379181	     -1.30696410	     11.40886081	     11.29398473	      2.61442510	    -16.91515650	      2.39302241	     -3.02478373
      2.27500000	      4.66960706	      1.14051535	      2.59973921	     -0.13089243	      1.02256835	      0.00419317	     18.41611010	     -4.11119181	     -2.85071187	    -26.45567623	      6.37604389	     -4.54493467	     18.34656242	    -12.81269449	      3.24903456	     -9.27606789	     -1.27194735	     11.69088129	     11.34873084	      2.64786925	    -16.89354907	      2.28280686	     -3.06914151
      2.28000000	      4.59813221	      1.24356257	      2.57051683	     -0.12582084	      1.02162390	      0.00461007	     18.42162141	     -4.19247460	     -2.80391804	    -24.94795544	      6.24951274	     -4.33967991	     18.34363121	    -13.06043996	      3.33690853	     -9.27570246	     -1.27711992	     12.00383503	     11.32669353	      2.68839885	    -16.78307858	      2.13610802	     -3.10815940
      2.28500000	      4.63086833	      1.32769674	      2.58553217	     -0.12066496	      1.02081896	      0.00496660	     18.25057821	     -4.26303908	     -2.81124955	    -23.36405208	      6.15714265	     -4.13666229	     18.35089401	    -13.43783685	      3.38773893	     -9.23045170	     -1.25235351	     12.26171542	     11.38535926	      2.73173359	    -16.77998087	      2.02814702	     -3.14771140
      2.29000000	      4.50495389	      1.48554988	      2.54359867	     -0.11561352	      1.01971700	      0.00541252	     18.29711950	     -4.39795765	     -2.68035477	    -21.85681098	      6.06882807	     -3.88137309	     18.34574392	    -13.62116501	      3.53659829	     -9.20222638	     -1.26817674	     12.52379353	     11.36460432	      2.76720393	    -16.61510827	      1.81517729	     -3.18460836
      2.29500000	      4.55972098	      1.55095437	      2.57669866	     -0.11039915	      1.01888526	      0.00572811	     18.06002305	     -4.46608096	     -2.73652452	    -20.24575009	      5.91871385	     -3.55803347	     18.34738062	    -14.01465881	      3.56546808	     -9.14555657	     -1.26529074	     12.83819136	     11.36902118	      2.82873125	    -16.63185238	      1.73747773	     -3.25408012
      2.30000000	      4.43226426	      1.72794988	      2.53374439	     -0.10534449	      1.01770684	      0.00616759	     18.08327551	     -4.62751040	     -2.59015502	    -18.73682202	      5.80969661	     -3.25649902	     18.34129665	    -14.18233354	      3.73447053	     -9.10460152	     -1.31165930	     13.11191689	     11.33975083	      2.86804503	    -16.46878638	      1.50671162	     -3.28067879
      2.30500000	      4.42718358	      1.84478441	      2.56984555	     -0.10017711	      1.01671654	      0.00647578	     17.91260831	     -4.76127351	     -2.64469227	    -17.17682638	      5.65805681	     -2.84306597	     18.33906178	    -14.48720717	      3.81796858	     -8.99825592	     -1.35430320	     13.42421381	     11.28031255	      2.93676078	    -16.42814543	      1.37188805	     -3.35189811
      2.31000000	      4.32184000	      2.02587805	      2.53945362	     -0.09506780	      1.01552028	      0.00688475	     17.88925041	     -4.94096781	     -2.55538099	    -15.69284059	      5.49678930	     -2.48671173	     18.32794310	    -14.67465322	      3.98933810	     -8.94584192	     -1.41584989	     13.72599662	     11.22873895	      2.98866812	    -16.28656537	      1.14420527	     -3.39918612
      2.31500000	      4.28531572	      2.17429838	      2.58801634	     -0.08988160	      1.01441255	      0.00717291	     17.74771194	     -5.11759761	     -2.63100028	    -14.20145726	      5.38771133	     -2.03172918	     18.31863775	    -14.93529698	      4.10226433	     -8.79112601	     -1.48250567	     14.00970074	     11.14917781	      3.06551277	    -16.21257325	      0.97930329	     -3.47987699
      2.32000000	      4.21837996	      2.34036388	      2.60706082	     -0.08468343	      1.01322412	      0.00751107	     17.65685850	     -5.30352620	     -2.67950552	    -12.77314236	      5.25292034	     -1.59265247	     18.29391736	    -15.16494986	      4.24267553	     -8.67289306	     -1.55053851	     14.30463460	     11.07228462	      3.15401427	    -16.10675051	      0.78534534	     -3.56060986
      2.32500000	      4.10513736	      2.52819023	      2.58695585	     -0.07951059	      1.01192771	      0.00792041	     17.64243734	     -5.49767793	     -2.67176203	    -11.41863899	      5.06864870	     -1.23072115	     18.27000176	    -15.32703541	      4.41509780	     -8.60279765	     -1.65537326	     14.62196783	     11.01271824	      3.21563948	    -15.95440652	      0.55511409	     -3.59107449
      2.33000000	      4.04913345	      2.69614335	      2.67314517	     -0.07427109	      1.01072170	      0.00817308	     17.53577426	     -5.70720964	     -2.88595953	    -10.10637865	      4.96873016	     -0.73644171	     18.23438011	    -15.54744121	      4.53485352	     -8.39250084	     -1.76957188	     14.91011327	     10.91732059	      3.31291761	    -15.85906930	      0.37883904	     -3.71170999
